<mxfile host="app.diagrams.net" modified="2022-05-23T16:29:55.495Z" agent="5.0 (Windows NT 10.0; Win64; x64) AppleWebKit/537.36 (KHTML, like Gecko) Chrome/101.0.0.0 Safari/537.36" etag="RLga36IIqrNqU1IuxE_p" version="18.1.1" type="github">
  <diagram id="C5RBs43oDa-KdzZeNtuy" name="Page-1">
    <mxGraphModel dx="3129" dy="1733" grid="1" gridSize="10" guides="1" tooltips="1" connect="1" arrows="1" fold="1" page="1" pageScale="1" pageWidth="1654" pageHeight="2336" math="0" shadow="0">
      <root>
        <mxCell id="WIyWlLk6GJQsqaUBKTNV-0" />
        <mxCell id="WIyWlLk6GJQsqaUBKTNV-1" parent="WIyWlLk6GJQsqaUBKTNV-0" />
        <mxCell id="zkfFHV4jXpPFQw0GAbJ--0" value="회원" style="swimlane;fontStyle=2;align=center;verticalAlign=top;childLayout=stackLayout;horizontal=1;startSize=26;horizontalStack=0;resizeParent=1;resizeLast=0;collapsible=1;marginBottom=0;rounded=0;shadow=0;strokeWidth=1;" parent="WIyWlLk6GJQsqaUBKTNV-1" vertex="1">
          <mxGeometry x="140" y="1030" width="200" height="240" as="geometry">
            <mxRectangle x="230" y="140" width="160" height="26" as="alternateBounds" />
          </mxGeometry>
        </mxCell>
        <mxCell id="zkfFHV4jXpPFQw0GAbJ--1" value="      이름        VARCHAR(10) &#xa;      성별        VARCHAR(10)&#xa;      연락처     VARCHAR(20)&#xa;P    ID            VARCHAR(20)&#xa;      PW          VARCHAR(20)&#xa;      생년월일  VARCHAR(20)&#xa;      나이          INT&#xa;" style="text;align=left;verticalAlign=top;spacingLeft=4;spacingRight=4;overflow=hidden;rotatable=0;points=[[0,0.5],[1,0.5]];portConstraint=eastwest;" parent="zkfFHV4jXpPFQw0GAbJ--0" vertex="1">
          <mxGeometry y="26" width="200" height="214" as="geometry" />
        </mxCell>
        <mxCell id="vNUhuykK9QhdGrMQWIPi-41" style="edgeStyle=orthogonalEdgeStyle;rounded=0;orthogonalLoop=1;jettySize=auto;html=1;exitX=0.5;exitY=0;exitDx=0;exitDy=0;entryX=-0.008;entryY=0.575;entryDx=0;entryDy=0;entryPerimeter=0;" edge="1" parent="WIyWlLk6GJQsqaUBKTNV-1" source="vNUhuykK9QhdGrMQWIPi-2" target="vNUhuykK9QhdGrMQWIPi-32">
          <mxGeometry relative="1" as="geometry" />
        </mxCell>
        <mxCell id="vNUhuykK9QhdGrMQWIPi-56" style="edgeStyle=orthogonalEdgeStyle;rounded=0;orthogonalLoop=1;jettySize=auto;html=1;entryX=1.014;entryY=0.222;entryDx=0;entryDy=0;entryPerimeter=0;" edge="1" parent="WIyWlLk6GJQsqaUBKTNV-1" source="vNUhuykK9QhdGrMQWIPi-2" target="vNUhuykK9QhdGrMQWIPi-30">
          <mxGeometry relative="1" as="geometry" />
        </mxCell>
        <mxCell id="vNUhuykK9QhdGrMQWIPi-2" value="크리에이터" style="swimlane;fontStyle=2;align=center;verticalAlign=top;childLayout=stackLayout;horizontal=1;startSize=26;horizontalStack=0;resizeParent=1;resizeLast=0;collapsible=1;marginBottom=0;rounded=0;shadow=0;strokeWidth=1;" vertex="1" parent="WIyWlLk6GJQsqaUBKTNV-1">
          <mxGeometry x="550" y="700" width="200" height="240" as="geometry">
            <mxRectangle x="230" y="140" width="160" height="26" as="alternateBounds" />
          </mxGeometry>
        </mxCell>
        <mxCell id="vNUhuykK9QhdGrMQWIPi-39" style="edgeStyle=orthogonalEdgeStyle;rounded=0;orthogonalLoop=1;jettySize=auto;html=1;entryX=0.5;entryY=1;entryDx=0;entryDy=0;" edge="1" parent="WIyWlLk6GJQsqaUBKTNV-1" source="vNUhuykK9QhdGrMQWIPi-5" target="vNUhuykK9QhdGrMQWIPi-27">
          <mxGeometry relative="1" as="geometry" />
        </mxCell>
        <mxCell id="vNUhuykK9QhdGrMQWIPi-48" style="edgeStyle=orthogonalEdgeStyle;rounded=0;orthogonalLoop=1;jettySize=auto;html=1;exitX=0.5;exitY=1;exitDx=0;exitDy=0;entryX=0.452;entryY=-0.032;entryDx=0;entryDy=0;entryPerimeter=0;" edge="1" parent="WIyWlLk6GJQsqaUBKTNV-1" source="vNUhuykK9QhdGrMQWIPi-5" target="vNUhuykK9QhdGrMQWIPi-33">
          <mxGeometry relative="1" as="geometry" />
        </mxCell>
        <mxCell id="vNUhuykK9QhdGrMQWIPi-49" style="edgeStyle=orthogonalEdgeStyle;rounded=0;orthogonalLoop=1;jettySize=auto;html=1;exitX=0.5;exitY=1;exitDx=0;exitDy=0;entryX=0.5;entryY=0;entryDx=0;entryDy=0;" edge="1" parent="WIyWlLk6GJQsqaUBKTNV-1" source="vNUhuykK9QhdGrMQWIPi-5" target="vNUhuykK9QhdGrMQWIPi-21">
          <mxGeometry relative="1" as="geometry" />
        </mxCell>
        <mxCell id="vNUhuykK9QhdGrMQWIPi-5" value="구독자" style="swimlane;fontStyle=2;align=center;verticalAlign=top;childLayout=stackLayout;horizontal=1;startSize=26;horizontalStack=0;resizeParent=1;resizeLast=0;collapsible=1;marginBottom=0;rounded=0;shadow=0;strokeWidth=1;" vertex="1" parent="WIyWlLk6GJQsqaUBKTNV-1">
          <mxGeometry x="550" y="1310" width="200" height="240" as="geometry">
            <mxRectangle x="230" y="140" width="160" height="26" as="alternateBounds" />
          </mxGeometry>
        </mxCell>
        <mxCell id="vNUhuykK9QhdGrMQWIPi-6" value="      이름        VARCHAR(10) &#xa;      성별        VARCHAR(10)&#xa;      연락처     VARCHAR(20)&#xa;P    ID            VARCHAR(20)&#xa;      PW          VARCHAR(20)&#xa;      생년월일  VARCHAR(20)&#xa;      나이          INT&#xa;" style="text;align=left;verticalAlign=top;spacingLeft=4;spacingRight=4;overflow=hidden;rotatable=0;points=[[0,0.5],[1,0.5]];portConstraint=eastwest;" vertex="1" parent="vNUhuykK9QhdGrMQWIPi-5">
          <mxGeometry y="26" width="200" height="214" as="geometry" />
        </mxCell>
        <mxCell id="vNUhuykK9QhdGrMQWIPi-55" style="edgeStyle=orthogonalEdgeStyle;rounded=0;orthogonalLoop=1;jettySize=auto;html=1;" edge="1" parent="WIyWlLk6GJQsqaUBKTNV-1" source="vNUhuykK9QhdGrMQWIPi-7">
          <mxGeometry relative="1" as="geometry">
            <mxPoint x="1460" y="770" as="targetPoint" />
          </mxGeometry>
        </mxCell>
        <mxCell id="vNUhuykK9QhdGrMQWIPi-7" value="관리자" style="swimlane;fontStyle=2;align=center;verticalAlign=top;childLayout=stackLayout;horizontal=1;startSize=26;horizontalStack=0;resizeParent=1;resizeLast=0;collapsible=1;marginBottom=0;rounded=0;shadow=0;strokeWidth=1;" vertex="1" parent="WIyWlLk6GJQsqaUBKTNV-1">
          <mxGeometry x="1360" y="1010" width="200" height="240" as="geometry">
            <mxRectangle x="230" y="140" width="160" height="26" as="alternateBounds" />
          </mxGeometry>
        </mxCell>
        <mxCell id="vNUhuykK9QhdGrMQWIPi-8" value="      이름        VARCHAR(10) &#xa;      성별        VARCHAR(10)&#xa;      연락처     VARCHAR(20)&#xa;P    ID            VARCHAR(20)&#xa;      PW          VARCHAR(20)&#xa;      생년월일  VARCHAR(20)&#xa;      나이          INT&#xa;" style="text;align=left;verticalAlign=top;spacingLeft=4;spacingRight=4;overflow=hidden;rotatable=0;points=[[0,0.5],[1,0.5]];portConstraint=eastwest;" vertex="1" parent="vNUhuykK9QhdGrMQWIPi-7">
          <mxGeometry y="26" width="200" height="214" as="geometry" />
        </mxCell>
        <mxCell id="vNUhuykK9QhdGrMQWIPi-9" value="음악" style="swimlane;fontStyle=2;align=center;verticalAlign=top;childLayout=stackLayout;horizontal=1;startSize=26;horizontalStack=0;resizeParent=1;resizeLast=0;collapsible=1;marginBottom=0;rounded=0;shadow=0;strokeWidth=1;" vertex="1" parent="WIyWlLk6GJQsqaUBKTNV-1">
          <mxGeometry x="230" y="140" width="200" height="240" as="geometry">
            <mxRectangle x="230" y="140" width="160" height="26" as="alternateBounds" />
          </mxGeometry>
        </mxCell>
        <mxCell id="vNUhuykK9QhdGrMQWIPi-10" value="P   음악번호       VARCHAR(10) &#xa;     노래제목       VARCHAR(10)&#xa;     아티스트       VARCHAR(20)&#xa;     앨범              VARCHAR(20)&#xa;     발매일          VARCHAR(20)&#xa;     장르              VARCHAR(20)&#xa;      작곡              VARCHAR(20)&#xa;     작사              VARCHAR(20)&#xa;     편곡              VARCHAR(20)&#xa;     가격              INT&#xa;     할인율           INT&#xa;     판매가           INT&#xa;" style="text;align=left;verticalAlign=top;spacingLeft=4;spacingRight=4;overflow=hidden;rotatable=0;points=[[0,0.5],[1,0.5]];portConstraint=eastwest;" vertex="1" parent="vNUhuykK9QhdGrMQWIPi-9">
          <mxGeometry y="26" width="200" height="214" as="geometry" />
        </mxCell>
        <mxCell id="vNUhuykK9QhdGrMQWIPi-13" value="책" style="swimlane;fontStyle=2;align=center;verticalAlign=top;childLayout=stackLayout;horizontal=1;startSize=26;horizontalStack=0;resizeParent=1;resizeLast=0;collapsible=1;marginBottom=0;rounded=0;shadow=0;strokeWidth=1;" vertex="1" parent="WIyWlLk6GJQsqaUBKTNV-1">
          <mxGeometry x="840" y="140" width="200" height="240" as="geometry">
            <mxRectangle x="230" y="140" width="160" height="26" as="alternateBounds" />
          </mxGeometry>
        </mxCell>
        <mxCell id="vNUhuykK9QhdGrMQWIPi-14" value="P   책번호         VARCHAR(10) &#xa;     책제목          VARCHAR(20)&#xa;     분류              VARCHAR(20)&#xa;     저자              VARCHAR(20)&#xa;     출판              VARCHAR(20)&#xa;     출간              VARCHAR(20)&#xa;      평점              INT&#xa;     가격              INT&#xa;     할인율           INT&#xa;     판매가           INT" style="text;align=left;verticalAlign=top;spacingLeft=4;spacingRight=4;overflow=hidden;rotatable=0;points=[[0,0.5],[1,0.5]];portConstraint=eastwest;" vertex="1" parent="vNUhuykK9QhdGrMQWIPi-13">
          <mxGeometry y="26" width="200" height="214" as="geometry" />
        </mxCell>
        <mxCell id="vNUhuykK9QhdGrMQWIPi-15" value="문의사항" style="swimlane;fontStyle=2;align=center;verticalAlign=top;childLayout=stackLayout;horizontal=1;startSize=26;horizontalStack=0;resizeParent=1;resizeLast=0;collapsible=1;marginBottom=0;rounded=0;shadow=0;strokeWidth=1;" vertex="1" parent="WIyWlLk6GJQsqaUBKTNV-1">
          <mxGeometry x="930" y="880" width="200" height="240" as="geometry">
            <mxRectangle x="230" y="140" width="160" height="26" as="alternateBounds" />
          </mxGeometry>
        </mxCell>
        <mxCell id="vNUhuykK9QhdGrMQWIPi-16" value="P  문의글번호          VARCHAR(10) &#xa;    문의글 제목         VARCHAR(20)&#xa;    문의내용              VARCHAR(50)&#xa;    문의유형              VARCHAR(20)&#xa;    연관된 문의사항  VARCHAR(50)&#xa;F  크리에이터 ID      VARCHAR(20)" style="text;align=left;verticalAlign=top;spacingLeft=4;spacingRight=4;overflow=hidden;rotatable=0;points=[[0,0.5],[1,0.5]];portConstraint=eastwest;" vertex="1" parent="vNUhuykK9QhdGrMQWIPi-15">
          <mxGeometry y="26" width="200" height="214" as="geometry" />
        </mxCell>
        <mxCell id="vNUhuykK9QhdGrMQWIPi-17" value="문의사항" style="swimlane;fontStyle=2;align=center;verticalAlign=top;childLayout=stackLayout;horizontal=1;startSize=26;horizontalStack=0;resizeParent=1;resizeLast=0;collapsible=1;marginBottom=0;rounded=0;shadow=0;strokeWidth=1;" vertex="1" parent="WIyWlLk6GJQsqaUBKTNV-1">
          <mxGeometry x="930" y="1200" width="200" height="240" as="geometry">
            <mxRectangle x="230" y="140" width="160" height="26" as="alternateBounds" />
          </mxGeometry>
        </mxCell>
        <mxCell id="vNUhuykK9QhdGrMQWIPi-18" value="P  문의글번호          VARCHAR(10) &#xa;    문의글 제목         VARCHAR(20)&#xa;    문의내용              VARCHAR(50)&#xa;    문의유형              VARCHAR(20)&#xa;    연관된 문의사항  VARCHAR(50)&#xa;F  구독자 ID             VARCHAR(20)" style="text;align=left;verticalAlign=top;spacingLeft=4;spacingRight=4;overflow=hidden;rotatable=0;points=[[0,0.5],[1,0.5]];portConstraint=eastwest;" vertex="1" parent="vNUhuykK9QhdGrMQWIPi-17">
          <mxGeometry y="26" width="200" height="214" as="geometry" />
        </mxCell>
        <mxCell id="vNUhuykK9QhdGrMQWIPi-19" value="공지사항" style="swimlane;fontStyle=2;align=center;verticalAlign=top;childLayout=stackLayout;horizontal=1;startSize=26;horizontalStack=0;resizeParent=1;resizeLast=0;collapsible=1;marginBottom=0;rounded=0;shadow=0;strokeWidth=1;" vertex="1" parent="WIyWlLk6GJQsqaUBKTNV-1">
          <mxGeometry x="1360" y="530" width="200" height="240" as="geometry">
            <mxRectangle x="230" y="140" width="160" height="26" as="alternateBounds" />
          </mxGeometry>
        </mxCell>
        <mxCell id="vNUhuykK9QhdGrMQWIPi-20" value="P  공지글번호          VARCHAR(10) &#xa;    공지글 제목         VARCHAR(20)&#xa;    공지내용              VARCHAR(50)&#xa;    공지유형              VARCHAR(20)&#xa;    연관된 공지사항  VARCHAR(50)&#xa;F  관리자 ID             VARCHAR(20)" style="text;align=left;verticalAlign=top;spacingLeft=4;spacingRight=4;overflow=hidden;rotatable=0;points=[[0,0.5],[1,0.5]];portConstraint=eastwest;" vertex="1" parent="vNUhuykK9QhdGrMQWIPi-19">
          <mxGeometry y="26" width="200" height="214" as="geometry" />
        </mxCell>
        <mxCell id="vNUhuykK9QhdGrMQWIPi-21" value="플레이리스트" style="swimlane;fontStyle=2;align=center;verticalAlign=top;childLayout=stackLayout;horizontal=1;startSize=26;horizontalStack=0;resizeParent=1;resizeLast=0;collapsible=1;marginBottom=0;rounded=0;shadow=0;strokeWidth=1;" vertex="1" parent="WIyWlLk6GJQsqaUBKTNV-1">
          <mxGeometry x="280" y="1750" width="200" height="240" as="geometry">
            <mxRectangle x="230" y="140" width="160" height="26" as="alternateBounds" />
          </mxGeometry>
        </mxCell>
        <mxCell id="vNUhuykK9QhdGrMQWIPi-22" value="P 플레이리스트번호  VARCHAR(10) &#xa;   플레이리스트제목   VARCHAR(20)&#xa;   설명                        VARCHAR(50)&#xa;   총 곡 수                   INT&#xa;   총 플레이 시간        VARCHAR(20)&#xa;   태그                        VARCHAR(20)&#xa;   연관 플레이리스트  VARCHAR(50)&#xa;F 구독자 ID                VARCHAR(20)" style="text;align=left;verticalAlign=top;spacingLeft=4;spacingRight=4;overflow=hidden;rotatable=0;points=[[0,0.5],[1,0.5]];portConstraint=eastwest;" vertex="1" parent="vNUhuykK9QhdGrMQWIPi-21">
          <mxGeometry y="26" width="200" height="214" as="geometry" />
        </mxCell>
        <mxCell id="vNUhuykK9QhdGrMQWIPi-25" value="책" style="swimlane;fontStyle=2;align=center;verticalAlign=top;childLayout=stackLayout;horizontal=1;startSize=26;horizontalStack=0;resizeParent=1;resizeLast=0;collapsible=1;marginBottom=0;rounded=0;shadow=0;strokeWidth=1;" vertex="1" parent="WIyWlLk6GJQsqaUBKTNV-1">
          <mxGeometry x="970" y="1800" width="200" height="240" as="geometry">
            <mxRectangle x="230" y="140" width="160" height="26" as="alternateBounds" />
          </mxGeometry>
        </mxCell>
        <mxCell id="vNUhuykK9QhdGrMQWIPi-26" value="P   책번호         VARCHAR(10) &#xa;     책제목          VARCHAR(20)&#xa;     분류              VARCHAR(20)&#xa;     저자              VARCHAR(20)&#xa;     출판              VARCHAR(20)&#xa;     출간              VARCHAR(20)&#xa;      평점              INT&#xa;     가격              INT&#xa;     할인율           INT&#xa;     판매가           INT" style="text;align=left;verticalAlign=top;spacingLeft=4;spacingRight=4;overflow=hidden;rotatable=0;points=[[0,0.5],[1,0.5]];portConstraint=eastwest;" vertex="1" parent="vNUhuykK9QhdGrMQWIPi-25">
          <mxGeometry y="26" width="200" height="214" as="geometry" />
        </mxCell>
        <mxCell id="vNUhuykK9QhdGrMQWIPi-40" style="edgeStyle=orthogonalEdgeStyle;rounded=0;orthogonalLoop=1;jettySize=auto;html=1;entryX=0.5;entryY=1;entryDx=0;entryDy=0;" edge="1" parent="WIyWlLk6GJQsqaUBKTNV-1" source="vNUhuykK9QhdGrMQWIPi-27" target="vNUhuykK9QhdGrMQWIPi-2">
          <mxGeometry relative="1" as="geometry" />
        </mxCell>
        <mxCell id="vNUhuykK9QhdGrMQWIPi-27" value="구독" style="swimlane;fontStyle=2;align=center;verticalAlign=top;childLayout=stackLayout;horizontal=1;startSize=26;horizontalStack=0;resizeParent=1;resizeLast=0;collapsible=1;marginBottom=0;rounded=0;shadow=0;strokeWidth=1;" vertex="1" parent="WIyWlLk6GJQsqaUBKTNV-1">
          <mxGeometry x="550" y="1025" width="200" height="130" as="geometry">
            <mxRectangle x="230" y="140" width="160" height="26" as="alternateBounds" />
          </mxGeometry>
        </mxCell>
        <mxCell id="vNUhuykK9QhdGrMQWIPi-28" value="P   구독자 ID           VARCHAR(20)&#xa;P   크리에이터 ID    VARCHAR(20)&#xa;      구독일자             VARCHAR(20)&#xa;" style="text;align=left;verticalAlign=top;spacingLeft=4;spacingRight=4;overflow=hidden;rotatable=0;points=[[0,0.5],[1,0.5]];portConstraint=eastwest;" vertex="1" parent="vNUhuykK9QhdGrMQWIPi-27">
          <mxGeometry y="26" width="200" height="104" as="geometry" />
        </mxCell>
        <mxCell id="vNUhuykK9QhdGrMQWIPi-44" style="edgeStyle=orthogonalEdgeStyle;rounded=0;orthogonalLoop=1;jettySize=auto;html=1;entryX=1.002;entryY=0.385;entryDx=0;entryDy=0;entryPerimeter=0;" edge="1" parent="WIyWlLk6GJQsqaUBKTNV-1" source="vNUhuykK9QhdGrMQWIPi-29" target="vNUhuykK9QhdGrMQWIPi-10">
          <mxGeometry relative="1" as="geometry">
            <Array as="points">
              <mxPoint x="480" y="248" />
            </Array>
          </mxGeometry>
        </mxCell>
        <mxCell id="vNUhuykK9QhdGrMQWIPi-29" value="추천" style="swimlane;fontStyle=2;align=center;verticalAlign=top;childLayout=stackLayout;horizontal=1;startSize=26;horizontalStack=0;resizeParent=1;resizeLast=0;collapsible=1;marginBottom=0;rounded=0;shadow=0;strokeWidth=1;" vertex="1" parent="WIyWlLk6GJQsqaUBKTNV-1">
          <mxGeometry x="360" y="490" width="200" height="130" as="geometry">
            <mxRectangle x="230" y="140" width="160" height="26" as="alternateBounds" />
          </mxGeometry>
        </mxCell>
        <mxCell id="vNUhuykK9QhdGrMQWIPi-30" value="P   크리에이터 ID   VARCHAR(20) &#xa;P   음악번호           VARCHAR(20)&#xa;     추천이유           VARCHAR(50)&#xa;     추천점수           INT&#xa;     추천날짜           VARCHAR(20)&#xa;" style="text;align=left;verticalAlign=top;spacingLeft=4;spacingRight=4;overflow=hidden;rotatable=0;points=[[0,0.5],[1,0.5]];portConstraint=eastwest;" vertex="1" parent="vNUhuykK9QhdGrMQWIPi-29">
          <mxGeometry y="26" width="200" height="104" as="geometry" />
        </mxCell>
        <mxCell id="vNUhuykK9QhdGrMQWIPi-43" style="edgeStyle=orthogonalEdgeStyle;rounded=0;orthogonalLoop=1;jettySize=auto;html=1;" edge="1" parent="WIyWlLk6GJQsqaUBKTNV-1" source="vNUhuykK9QhdGrMQWIPi-31" target="vNUhuykK9QhdGrMQWIPi-14">
          <mxGeometry relative="1" as="geometry">
            <Array as="points">
              <mxPoint x="790" y="230" />
            </Array>
          </mxGeometry>
        </mxCell>
        <mxCell id="vNUhuykK9QhdGrMQWIPi-31" value="추천" style="swimlane;fontStyle=2;align=center;verticalAlign=top;childLayout=stackLayout;horizontal=1;startSize=26;horizontalStack=0;resizeParent=1;resizeLast=0;collapsible=1;marginBottom=0;rounded=0;shadow=0;strokeWidth=1;" vertex="1" parent="WIyWlLk6GJQsqaUBKTNV-1">
          <mxGeometry x="727" y="490" width="200" height="130" as="geometry">
            <mxRectangle x="230" y="140" width="160" height="26" as="alternateBounds" />
          </mxGeometry>
        </mxCell>
        <mxCell id="vNUhuykK9QhdGrMQWIPi-32" value="P   크리에이터 ID    VARCHAR(20)&#xa;P   책 번호               VARCHAR(20)&#xa;     추천이유             VARCHAR(50)&#xa;     추천점수             INT&#xa;     추천날짜             VARCHAR(20)" style="text;align=left;verticalAlign=top;spacingLeft=4;spacingRight=4;overflow=hidden;rotatable=0;points=[[0,0.5],[1,0.5]];portConstraint=eastwest;" vertex="1" parent="vNUhuykK9QhdGrMQWIPi-31">
          <mxGeometry y="26" width="200" height="104" as="geometry" />
        </mxCell>
        <mxCell id="vNUhuykK9QhdGrMQWIPi-33" value="구매" style="swimlane;fontStyle=2;align=center;verticalAlign=top;childLayout=stackLayout;horizontal=1;startSize=26;horizontalStack=0;resizeParent=1;resizeLast=0;collapsible=1;marginBottom=0;rounded=0;shadow=0;strokeWidth=1;" vertex="1" parent="WIyWlLk6GJQsqaUBKTNV-1">
          <mxGeometry x="750" y="1620" width="200" height="130" as="geometry">
            <mxRectangle x="230" y="140" width="160" height="26" as="alternateBounds" />
          </mxGeometry>
        </mxCell>
        <mxCell id="vNUhuykK9QhdGrMQWIPi-34" value="P   구독자 ID           VARCHAR(20)&#xa;P   책번호               VARCHAR(20)&#xa;     구매일자            VARCHAR(20)&#xa;     결제방식            VARCHAR(20)&#xa;     구매처                VARCHAR(20)&#xa;" style="text;align=left;verticalAlign=top;spacingLeft=4;spacingRight=4;overflow=hidden;rotatable=0;points=[[0,0.5],[1,0.5]];portConstraint=eastwest;" vertex="1" parent="vNUhuykK9QhdGrMQWIPi-33">
          <mxGeometry y="26" width="200" height="104" as="geometry" />
        </mxCell>
        <mxCell id="vNUhuykK9QhdGrMQWIPi-36" style="edgeStyle=orthogonalEdgeStyle;rounded=0;orthogonalLoop=1;jettySize=auto;html=1;entryX=0.05;entryY=0.065;entryDx=0;entryDy=0;entryPerimeter=0;" edge="1" parent="WIyWlLk6GJQsqaUBKTNV-1" source="zkfFHV4jXpPFQw0GAbJ--1" target="vNUhuykK9QhdGrMQWIPi-3">
          <mxGeometry relative="1" as="geometry" />
        </mxCell>
        <mxCell id="vNUhuykK9QhdGrMQWIPi-37" style="edgeStyle=orthogonalEdgeStyle;rounded=0;orthogonalLoop=1;jettySize=auto;html=1;" edge="1" parent="WIyWlLk6GJQsqaUBKTNV-1" source="zkfFHV4jXpPFQw0GAbJ--1" target="vNUhuykK9QhdGrMQWIPi-6">
          <mxGeometry relative="1" as="geometry" />
        </mxCell>
        <mxCell id="vNUhuykK9QhdGrMQWIPi-45" style="edgeStyle=orthogonalEdgeStyle;rounded=0;orthogonalLoop=1;jettySize=auto;html=1;entryX=-0.011;entryY=0.56;entryDx=0;entryDy=0;entryPerimeter=0;" edge="1" parent="WIyWlLk6GJQsqaUBKTNV-1" source="vNUhuykK9QhdGrMQWIPi-3" target="vNUhuykK9QhdGrMQWIPi-16">
          <mxGeometry relative="1" as="geometry" />
        </mxCell>
        <mxCell id="vNUhuykK9QhdGrMQWIPi-3" value="      이름        VARCHAR(10) &#xa;      성별        VARCHAR(10)&#xa;      연락처     VARCHAR(20)&#xa;P    ID            VARCHAR(20)&#xa;      PW          VARCHAR(20)&#xa;      생년월일  VARCHAR(20)&#xa;      나이          INT&#xa;" style="text;align=left;verticalAlign=top;spacingLeft=4;spacingRight=4;overflow=hidden;rotatable=0;points=[[0,0.5],[1,0.5]];portConstraint=eastwest;" vertex="1" parent="WIyWlLk6GJQsqaUBKTNV-1">
          <mxGeometry x="550" y="726" width="200" height="214" as="geometry" />
        </mxCell>
        <mxCell id="vNUhuykK9QhdGrMQWIPi-46" style="edgeStyle=orthogonalEdgeStyle;rounded=0;orthogonalLoop=1;jettySize=auto;html=1;entryX=0.002;entryY=0.393;entryDx=0;entryDy=0;entryPerimeter=0;" edge="1" parent="WIyWlLk6GJQsqaUBKTNV-1" source="vNUhuykK9QhdGrMQWIPi-6" target="vNUhuykK9QhdGrMQWIPi-18">
          <mxGeometry relative="1" as="geometry" />
        </mxCell>
        <mxCell id="vNUhuykK9QhdGrMQWIPi-50" style="edgeStyle=orthogonalEdgeStyle;rounded=0;orthogonalLoop=1;jettySize=auto;html=1;entryX=0.5;entryY=0;entryDx=0;entryDy=0;" edge="1" parent="WIyWlLk6GJQsqaUBKTNV-1" source="vNUhuykK9QhdGrMQWIPi-34" target="vNUhuykK9QhdGrMQWIPi-25">
          <mxGeometry relative="1" as="geometry" />
        </mxCell>
        <mxCell id="vNUhuykK9QhdGrMQWIPi-53" style="edgeStyle=orthogonalEdgeStyle;rounded=0;orthogonalLoop=1;jettySize=auto;html=1;entryX=-0.007;entryY=0.65;entryDx=0;entryDy=0;entryPerimeter=0;" edge="1" parent="WIyWlLk6GJQsqaUBKTNV-1" source="vNUhuykK9QhdGrMQWIPi-18" target="vNUhuykK9QhdGrMQWIPi-8">
          <mxGeometry relative="1" as="geometry" />
        </mxCell>
        <mxCell id="vNUhuykK9QhdGrMQWIPi-54" style="edgeStyle=orthogonalEdgeStyle;rounded=0;orthogonalLoop=1;jettySize=auto;html=1;entryX=-0.019;entryY=0.451;entryDx=0;entryDy=0;entryPerimeter=0;" edge="1" parent="WIyWlLk6GJQsqaUBKTNV-1" source="vNUhuykK9QhdGrMQWIPi-16" target="vNUhuykK9QhdGrMQWIPi-8">
          <mxGeometry relative="1" as="geometry" />
        </mxCell>
      </root>
    </mxGraphModel>
  </diagram>
</mxfile>
